<svg class="" enable-background="new 0 0 512 512" version="1.1" viewBox="0 0 512 512" xml:space="preserve" xmlns="http://www.w3.org/2000/svg"><g>
<path class="" d="m288.84 432.74c0.358-0.065 0.71-0.16 1.057-0.279 0.06-0.02 0.119-0.04 0.176-0.062 0.359-0.131 0.71-0.287 1.049-0.473 0.012-6e-3 0.023-0.01 0.035-0.016 0.054-0.029 0.102-0.065 0.155-0.097 0.146-0.085 0.291-0.174 0.433-0.27 0.098-0.067 0.19-0.139 0.283-0.208 0.101-0.077 0.205-0.154 0.305-0.237 0.121-0.099 0.235-0.208 0.351-0.317 0.052-0.048 0.106-0.091 0.157-0.141 0.038-0.04 0.072-0.075 0.109-0.113 8e-3 -8e-3 0.016-0.016 0.022-0.021 109.96-110.02 95.95-170.78 95.3-173.31-1.044-4.063-5.189-6.517-9.256-5.473-4.067 1.043-6.518 5.188-5.473 9.255 0.03 0.121-115.28 96.07-115.28 96.07-2.035-3.671-6.667-4.994-10.338-2.954-3.672 2.04-4.994 6.669-2.954 10.338l35.752 64.362c3e-3 6e-3 8e-3 0.014 0.011 0.02l0.079 0.143c0.016 0.029 0.039 0.056 0.057 0.085 0.134 0.236 0.283 0.463 0.446 0.687 0.051 0.069 0.099 0.141 0.151 0.206 0.173 0.222 0.357 0.436 0.556 0.64 0.023 0.021 0.041 0.05 0.063 0.071 0.017 0.016 0.038 0.027 0.055 0.046 0.245 0.241 0.506 0.457 0.776 0.657 0.066 0.05 0.131 0.101 0.2 0.148 0.293 0.204 0.597 0.388 0.91 0.548 0.04 0.02 0.08 0.035 0.12 0.056 0.317 0.154 0.643 0.285 0.974 0.392 0.03 0.01 0.06 0.021 0.089 0.031 0.346 0.106 0.695 0.185 1.05 0.239 0.068 0.012 0.138 0.022 0.206 0.029 0.351 0.048 0.702 0.073 1.054 0.071 0.054 0 0.106-6e-3 0.16-8e-3 0.328-0.01 0.657-0.04 0.983-0.093 0.062-6e-3 0.117-0.011 0.174-0.022z" fill="#97048d" style="" data-original="#ee5253"/>
<path class="" d="m157.91 264.07c2.041-3.671 0.716-8.304-2.954-10.338 0 0 96.031-115.29 96.167-115.26l-0.098-0.025 3.782-14.728c-2.535-0.652-63.286-14.653-173.3 95.305-7e-3 8e-3 -0.015 0.016-0.021 0.021-0.039 0.038-0.075 0.073-0.112 0.111-0.052 0.052-0.093 0.105-0.143 0.158-0.108 0.113-0.216 0.228-0.317 0.351-0.083 0.099-0.159 0.202-0.236 0.305-0.069 0.093-0.142 0.187-0.208 0.283-0.096 0.141-0.184 0.285-0.27 0.432-0.03 0.054-0.067 0.103-0.097 0.156-7e-3 0.012-0.01 0.023-0.017 0.035-0.187 0.339-0.341 0.687-0.471 1.043-0.022 0.062-0.044 0.123-0.064 0.185-0.117 0.347-0.213 0.695-0.277 1.051-0.012 0.06-0.017 0.119-0.026 0.18-0.051 0.32-0.082 0.646-0.09 0.97-3e-3 0.056-9e-3 0.113-0.01 0.168-2e-3 0.353 0.024 0.701 0.071 1.049 9e-3 0.071 0.019 0.141 0.029 0.212 0.057 0.355 0.134 0.703 0.24 1.047 9e-3 0.031 0.021 0.062 0.03 0.091 0.107 0.333 0.239 0.655 0.392 0.972 0.02 0.042 0.037 0.081 0.058 0.121 0.158 0.315 0.343 0.615 0.547 0.91 0.049 0.069 0.098 0.135 0.148 0.202 0.202 0.268 0.418 0.528 0.659 0.775 0.016 0.018 0.027 0.035 0.045 0.054 0.021 0.021 0.049 0.04 0.071 0.062 0.205 0.2 0.419 0.384 0.639 0.557 0.067 0.052 0.137 0.101 0.207 0.15 0.223 0.164 0.451 0.313 0.686 0.447 0.03 0.018 0.056 0.04 0.086 0.056l0.142 0.079c7e-3 4e-3 0.013 6e-3 0.02 0.012l64.357 35.751c3.671 2.041 8.301 0.719 10.34-2.952z" fill="#b40b9e" style="" data-original="#ff6b6b"/>
<path class="" d="m127.89 305.12c-2.115-2.115-2.794-5.273-1.734-8.071 20.033-52.867 96.667-147.66 141.98-192.98 72.409-72.409 149.72-106.41 236.36-103.95 4.03 0.115 7.27 3.355 7.384 7.384 2.466 86.632-31.535 163.94-103.95 236.36-45.313 45.313-140.1 121.95-192.97 141.98-2.798 1.059-5.956 0.38-8.071-1.735l-78.997-78.994z" fill="#f5f5f5" style="" data-original="#e4e8eb"/>
<path class="" d="m511.87 7.508c-0.114-4.03-3.355-7.269-7.384-7.384-4.718-0.135-9.403-0.141-14.066-0.058-1.431 80.965-35.538 153.82-104 222.29-45.313 45.313-140.11 121.95-192.97 141.98-2.797 1.061-5.956 0.382-8.071-1.733l-57.492-57.489c2e-3 0 3e-3 2e-3 5e-3 4e-3l78.996 78.993c2.115 2.115 5.273 2.794 8.071 1.735 52.866-20.033 147.66-96.668 192.97-141.98 72.412-72.41 106.41-149.72 103.95-236.36z" fill="#e1e1e1" style="" data-original="#cad0d7"/>
<path class="" d="m143.11 262.98c-7.294 12.449-13.15 24.015-16.958 34.062-1.06 2.798-0.381 5.956 1.734 8.071l78.996 78.993c2.115 2.115 5.273 2.794 8.071 1.735 10.047-3.808 21.612-9.663 34.061-16.958l-105.9-105.9z" fill="#343434" style="" data-original="#576574"/>
<path class="" d="m5.475 506.53c-6.922-6.922-7.274-18.868-1.078-36.521 4.431-12.625 12.174-28.281 23.01-46.526 18.659-31.418 42.962-64.293 53.953-75.282 11.009-11.011 25.65-17.075 41.22-17.075s30.211 6.063 41.221 17.075c22.728 22.728 22.728 59.71 1e-3 82.44-10.995 10.994-43.868 35.296-75.283 53.955-18.248 10.836-33.9 18.577-46.524 23.011-17.654 6.195-29.6 5.844-36.52-1.077z" fill="#b40b9e" style="" data-original="#ff6b6b"/>
<path class="" d="m163.8 348.2c-3.691-3.691-7.796-6.812-12.201-9.348 12.803 22.275 9.707 51.263-9.307 70.28-10.994 10.992-43.868 35.294-75.282 53.953-18.248 10.837-33.901 18.579-46.525 23.013-7.966 2.796-14.758 4.246-20.462 4.374-0.155 6.937 1.652 12.259 5.45 16.059 6.92 6.92 18.866 7.271 36.52 1.076 12.623-4.433 28.277-12.176 46.524-23.011 31.415-18.658 64.289-42.961 75.283-53.955 22.728-22.73 22.728-59.713 0-82.441z" fill="#97048d" style="" data-original="#ee5253"/>
<g fill="#040404">
	<path class="" d="m178.14 333.86c-2.97-2.97-7.784-2.97-10.753 0l-5.375 5.374 10.753 10.752 5.375-5.374c2.968-2.971 2.968-7.784 0-10.752z" style="" data-original="#222f3e"/>
	<path class="" d="m149.46 305.19c-2.969-2.97-7.783-2.97-10.753 0l-5.374 5.374 10.753 10.754 5.374-5.376c2.97-2.968 2.97-7.781 0-10.752z" style="" data-original="#222f3e"/>
</g>
<g fill="#de03a1">
	<path class="" d="m265.34 246.66c-6.703-6.7-10.396-15.613-10.396-25.09 0-9.479 3.692-18.39 10.395-25.092 6.7-6.7 15.611-10.392 25.089-10.394 9.479 0 18.39 3.691 25.091 10.392 6.701 6.702 10.394 15.615 10.394 25.092 1e-3 9.479-3.691 18.392-10.395 25.092-13.834 13.835-36.342 13.835-50.178 0z" style="" data-original="#54a0ff"/>
	<path class="" d="m351.37 160.63c-13.836-13.834-13.836-36.346 0-50.18 13.835-13.834 36.347-13.834 50.18 0 6.702 6.702 10.395 15.613 10.396 25.092 0 9.477-3.692 18.39-10.395 25.092-13.833 13.833-36.345 13.833-50.181-4e-3z" style="" data-original="#54a0ff"/>
</g>
<g fill="#b70185">
	<path class="" d="m411.95 135.54c-1e-3 -9.479-3.693-18.39-10.396-25.092-3.838-3.837-8.347-6.608-13.151-8.316 1.338 3.77 2.037 7.782 2.038 11.9 0 9.477-3.692 18.388-10.394 25.09-9.988 9.988-24.497 12.762-37 8.327 1.707 4.816 4.481 9.334 8.328 13.18 13.836 13.837 36.349 13.837 50.181 4e-3 6.702-6.703 10.394-15.616 10.394-25.093z" style="" data-original="#2e86de"/>
	<path class="" d="m325.91 221.57c0-9.477-3.693-18.388-10.395-25.09-3.838-3.839-8.347-6.61-13.151-8.316 1.338 3.768 2.037 7.78 2.038 11.898 0 9.479-3.691 18.39-10.394 25.092-9.988 9.988-24.497 12.76-37.001 8.327 1.707 4.814 4.481 9.332 8.328 13.18 13.836 13.835 36.348 13.835 50.181 2e-3 6.703-6.704 10.394-15.615 10.394-25.093z" style="" data-original="#2e86de"/>
</g>
<path class="" d="m50.741 461.26c-5.927-5.927-2.136-15.355 2.353-23.799 3.695-6.947 9.402-15.829 16.962-26.401 12.901-18.039 28.291-36.836 32.81-41.355 10.871-10.871 28.558-10.871 39.429 0 10.871 10.869 10.871 28.557 0 39.429-4.52 4.521-23.319 19.912-41.353 32.81-10.572 7.56-19.453 13.267-26.402 16.961-8.442 4.491-17.871 8.281-23.799 2.355z" fill="#feca57" style="" data-original="#feca57"/>
<path class="" d="m504.49 0.125c-30.52-0.867-59.877 2.811-88.276 11.079l84.582 84.583c8.268-28.399 11.946-57.759 11.078-88.278-0.114-4.029-3.354-7.27-7.384-7.384z" fill="#b40b9e" style="" data-original="#ff6b6b"/>
<path class="" d="m217.91 384.68c0.561-0.226 1.123-0.461 1.693-0.699 0.244-0.103 0.488-0.206 0.734-0.309 0.665-0.285 1.334-0.576 2.009-0.873 0.127-0.058 0.25-0.108 0.377-0.166 0.78-0.347 1.567-0.705 2.36-1.072 0.277-0.127 0.557-0.258 0.834-0.39 0.539-0.251 1.083-0.507 1.629-0.768 0.319-0.154 0.641-0.307 0.961-0.463 0.555-0.268 1.113-0.542 1.673-0.82 0.287-0.143 0.572-0.279 0.861-0.424 0.774-0.388 1.553-0.782 2.338-1.184 0.391-0.2 0.786-0.408 1.18-0.612 0.445-0.232 0.893-0.463 1.342-0.701 0.44-0.231 0.881-0.465 1.324-0.703 0.409-0.218 0.82-0.438 1.231-0.659 0.463-0.249 0.926-0.499 1.394-0.754 0.179-0.097 0.361-0.2 0.542-0.299 1.11-0.61 2.229-1.234 3.359-1.869 0.308-0.172 0.614-0.347 0.924-0.521 0.568-0.322 1.135-0.648 1.706-0.976 0.279-0.16 0.56-0.322 0.839-0.485 0.598-0.347 1.196-0.693 1.799-1.045l-21.509-21.508c-12.449 7.292-24.013 13.15-34.061 16.956-2.797 1.061-5.956 0.382-8.071-1.733l-57.487-57.485 78.996 78.993c2.115 2.115 5.273 2.794 8.071 1.735 0.746-0.283 1.505-0.582 2.268-0.887 0.228-0.093 0.456-0.187 0.684-0.279z" fill="#040404" style="" data-original="#222f3e"/>
<path class="" d="m490.42 0.067c-0.451 25.502-4.152 50.2-11.137 74.209l21.509 21.51c0.477-1.635 0.933-3.275 1.379-4.917 0.095-0.353 0.188-0.709 0.283-1.061 1.288-4.816 2.441-9.659 3.467-14.53 0.125-0.592 0.248-1.184 0.369-1.776 0.299-1.467 0.591-2.936 0.866-4.41 0.106-0.569 0.203-1.143 0.306-1.711 0.445-2.468 0.857-4.94 1.236-7.421 0.145-0.951 0.292-1.901 0.427-2.853 0.172-1.212 0.337-2.424 0.493-3.64 0.153-1.19 0.295-2.382 0.434-3.574 0.146-1.247 0.288-2.493 0.417-3.742 0.189-1.834 0.36-3.671 0.513-5.513 0.077-0.925 0.144-1.853 0.212-2.78 0.111-1.531 0.213-3.062 0.301-4.596 0.046-0.8 0.096-1.598 0.135-2.398 0.111-2.246 0.199-4.497 0.259-6.756 0.015-0.576 0.02-1.157 0.031-1.735 0.038-1.867 0.06-3.737 0.062-5.612 1e-3 -0.689 2e-3 -1.38-1e-3 -2.069-0.012-2.388-0.043-4.782-0.111-7.184-0.114-4.03-3.355-7.269-7.384-7.384-4.719-0.134-9.404-0.14-14.066-0.057z" fill="#97048d" style="" data-original="#ee5253"/>















</g></svg>
